<?xml version="1.0" encoding="UTF-8" standalone="no"?>
<svg
   xmlns:dc="http://purl.org/dc/elements/1.1/"
   xmlns:cc="http://creativecommons.org/ns#"
   xmlns:rdf="http://www.w3.org/1999/02/22-rdf-syntax-ns#"
   xmlns:svg="http://www.w3.org/2000/svg"
   xmlns="http://www.w3.org/2000/svg"
   xmlns:sodipodi="http://sodipodi.sourceforge.net/DTD/sodipodi-0.dtd"
   xmlns:inkscape="http://www.inkscape.org/namespaces/inkscape"
   width="210mm"
   height="297mm"
   viewBox="0 0 210 297"
   version="1.1"
   id="svg29"
   inkscape:version="1.0.2-2 (e86c870879, 2021-01-15)"
   sodipodi:docname="nu_bank_branco.svg">
  <defs
     id="defs23" />
  <sodipodi:namedview
     id="base"
     pagecolor="#ffffff"
     bordercolor="#666666"
     borderopacity="1.0"
     inkscape:pageopacity="0.0"
     inkscape:pageshadow="2"
     inkscape:zoom="0.35"
     inkscape:cx="400"
     inkscape:cy="560"
     inkscape:document-units="mm"
     inkscape:current-layer="layer1"
     inkscape:document-rotation="0"
     showgrid="false"
     inkscape:window-width="1362"
     inkscape:window-height="728"
     inkscape:window-x="0"
     inkscape:window-y="0"
     inkscape:window-maximized="0" />
  <metadata
     id="metadata26">
    <rdf:RDF>
      <cc:Work
         rdf:about="">
        <dc:format>image/svg+xml</dc:format>
        <dc:type
           rdf:resource="http://purl.org/dc/dcmitype/StillImage" />
        <dc:title></dc:title>
      </cc:Work>
    </rdf:RDF>
  </metadata>
  <g
     inkscape:label="Layer 1"
     inkscape:groupmode="layer"
     id="layer1">
    <path
       d="m 58.158254,97.407266 c 3.746092,-3.9541 8.715221,-6.26384 14.553081,-6.26384 11.37267,0 18.91286,8.34248 20.35546,20.840084 0.46772,4.05857 0.46344,9.78053 0.45876,16.40805 0,0.67966 0,1.36893 0,2.06685 v 24.82784 h -15.63964 v -18.36346 c 0,0 -0.0319,-15.71649 -0.12749,-18.65381 -0.41968,-12.79298 -7.95782,-20.831444 -19.600782,-20.840074 -3.51272,3.728694 -5.394952,8.287654 -5.672508,15.258474 -0.03813,0.97226 -0.02855,4.41849 -0.01603,8.96051 0.0066,2.35331 0.0141,5.00086 0.01603,7.75084 0.01191,11.96945 0,25.89019 0,25.89019 H 36.845474 v -28.26115 c 0,-0.96835 -0.01773,-1.94493 -0.03519,-2.92542 -0.03543,-1.97223 -0.07118,-3.95965 0.03519,-5.92757 0.17675,-3.28062 0.741609,-6.50565 2.26531,-9.50158 3.487639,-6.86358 10.633958,-11.282764 18.252471,-11.282764 0.26611,0 0.532458,0.006 0.795922,0.0164 z"
       class="Path-xrtkpd-0 eqfYiR"
       id="path2-6"
       inkscape:connector-curvature="0"
       style="fill:#ffffff;stroke-width:2.04726"
       inkscape:export-filename="C:\Users\alex\sites\nubank-logo-4.png"
       inkscape:export-xdpi="92.618095"
       inkscape:export-ydpi="92.618095" />
    <path
       d="m 155.16638,128.26605 c 0.10641,-1.96794 0.0707,-3.95554 0.0353,-5.92759 -0.0178,-0.98047 -0.0353,-1.95704 -0.0353,-2.92542 V 91.151831 h -15.63942 c 0,0 -0.0117,13.920769 0,25.890069 0.003,2.74997 0.009,5.39731 0.0157,7.75062 0.0126,4.54224 0.0222,7.98846 -0.0157,8.96073 -0.27758,6.97105 -2.15991,11.5299 -5.67256,15.2587 -11.64272,-0.008 -19.18067,-8.04738 -19.60061,-20.84009 -0.0956,-2.93732 -0.13605,-10.22644 -0.13605,-18.66857 V 91.139831 l -15.627975,0.0143 v 24.827939 c 0,0.6979 0,1.38698 0,2.06682 -0.005,6.62755 -0.009,12.3493 0.45876,16.40806 1.439525,12.49765 8.979705,20.84009 20.352425,20.84009 5.83803,0 10.80714,-2.30979 14.55324,-6.2639 0.26328,0.0103 0.52941,0.0164 0.79554,0.0164 7.61844,0 14.76484,-4.4191 18.25256,-11.28263 1.52371,-2.99622 2.08843,-6.22101 2.26511,-9.50163 z"
       class="Path-xrtkpd-0 eqfYiR"
       id="path4-5"
       inkscape:connector-curvature="0"
       style="fill:#ffffff;stroke-width:2.04726"
       inkscape:export-filename="C:\Users\alex\sites\nubank-logo-4.png"
       inkscape:export-xdpi="92.618095"
       inkscape:export-ydpi="92.618095" />
  </g>
</svg>
