<?xml version="1.0" encoding="UTF-8" standalone="no"?>
<svg
   xmlns:dc="http://purl.org/dc/elements/1.1/"
   xmlns:cc="http://creativecommons.org/ns#"
   xmlns:rdf="http://www.w3.org/1999/02/22-rdf-syntax-ns#"
   xmlns:svg="http://www.w3.org/2000/svg"
   xmlns="http://www.w3.org/2000/svg"
   xmlns:sodipodi="http://sodipodi.sourceforge.net/DTD/sodipodi-0.dtd"
   xmlns:inkscape="http://www.inkscape.org/namespaces/inkscape"
   width="210mm"
   height="297mm"
   viewBox="0 0 210 297"
   version="1.1"
   id="svg29"
   inkscape:version="1.0.2-2 (e86c870879, 2021-01-15)"
   sodipodi:docname="nu_bank_roxo.svg">
  <defs
     id="defs23" />
  <sodipodi:namedview
     id="base"
     pagecolor="#ffffff"
     bordercolor="#666666"
     borderopacity="1.0"
     inkscape:pageopacity="0.0"
     inkscape:pageshadow="2"
     inkscape:zoom="0.35"
     inkscape:cx="400"
     inkscape:cy="491.41913"
     inkscape:document-units="mm"
     inkscape:current-layer="layer1"
     inkscape:document-rotation="0"
     showgrid="false"
     inkscape:window-width="1366"
     inkscape:window-height="705"
     inkscape:window-x="-8"
     inkscape:window-y="-8"
     inkscape:window-maximized="1" />
  <metadata
     id="metadata26">
    <rdf:RDF>
      <cc:Work
         rdf:about="">
        <dc:format>image/svg+xml</dc:format>
        <dc:type
           rdf:resource="http://purl.org/dc/dcmitype/StillImage" />
        <dc:title />
      </cc:Work>
    </rdf:RDF>
  </metadata>
  <g
     inkscape:label="Layer 1"
     inkscape:groupmode="layer"
     id="layer1">
    <path
       d="m 63.803786,111.46774 c 4.234889,-4.44914 9.852393,-7.04806 16.451908,-7.04806 12.856599,0 21.380636,9.38695 23.011466,23.44926 0.52876,4.56669 0.52391,11.00503 0.5186,18.46232 -8e-4,0.76473 -0.001,1.54032 -0.001,2.3256 v 27.93628 H 86.104422 v -20.66255 c 0,0 -0.03602,-17.6842 -0.144081,-20.98926 -0.474493,-14.39464 -8.996225,-23.43951 -22.158304,-23.44923 -3.971089,4.19552 -6.098855,9.32528 -6.412645,17.16882 -0.04313,1.09399 -0.03228,4.97168 -0.01799,10.08236 0.0074,2.64793 0.01574,5.62697 0.01799,8.72123 0.0131,13.46802 0,29.13163 0,29.13163 H 39.709106 v -31.79942 c 0,-1.08961 -0.01987,-2.18845 -0.03979,-3.29168 -0.0401,-2.21915 -0.08051,-4.45539 0.03979,-6.6697 0.199757,-3.69136 0.838326,-7.32014 2.560817,-10.69119 3.94276,-7.72288 12.021492,-12.69534 20.634055,-12.69534 0.300863,0 0.601951,0.007 0.899808,0.0185 z"
       class="Path-xrtkpd-0 eqfYiR"
       id="path2"
       inkscape:connector-curvature="0"
       style="fill:#612f74;fill-opacity:1;stroke-width:2.30897"
       inkscape:export-filename="C:\Users\alex\sites\nubank-logo-5.png"
       inkscape:export-xdpi="132.76538"
       inkscape:export-ydpi="132.76538" />
    <path
       d="m 173.46946,147.8912 c 0.1203,-2.2143 0.0799,-4.45078 0.0399,-6.6697 -0.0201,-1.10323 -0.0399,-2.20206 -0.0399,-3.29167 v -31.7995 h -17.68005 c 0,0 -0.0132,15.66363 0,29.13148 0.002,3.09426 0.0104,6.07306 0.0178,8.72099 0.0143,5.11092 0.0252,8.98861 -0.0178,10.0826 -0.31379,7.84382 -2.44174,12.97344 -6.41271,17.16907 -13.16185,-0.009 -21.68335,-9.05487 -22.15808,-23.44925 -0.10806,-3.30507 -0.15378,-11.50677 -0.15378,-21.00587 v -20.66252 l -17.66712,0.0161 v 27.93635 c 0,0.78528 -7.9e-4,1.56063 -0.001,2.3256 -0.006,7.45729 -0.0102,13.8954 0.51859,18.46232 1.62737,14.06235 10.15142,23.44925 23.00802,23.44925 6.59974,0 12.21725,-2.59898 16.45214,-7.04814 0.29762,0.0115 0.59848,0.0185 0.89934,0.0185 8.61248,0 16.69135,-4.97237 20.63415,-12.6952 1.72249,-3.37133 2.36093,-6.99989 2.56065,-10.69125 z"
       class="Path-xrtkpd-0 eqfYiR"
       id="path4"
       inkscape:connector-curvature="0"
       style="fill:#612f74;fill-opacity:1;stroke-width:2.30897"
       inkscape:export-filename="C:\Users\alex\sites\nubank-logo-5.png"
       inkscape:export-xdpi="132.76538"
       inkscape:export-ydpi="132.76538" />
  </g>
</svg>
